<mxfile host="65bd71144e">
    <diagram id="DLnVY5NDsVVYwWrmNcwQ" name="Page-1">
        <mxGraphModel dx="1155" dy="660" grid="1" gridSize="10" guides="1" tooltips="1" connect="1" arrows="1" fold="1" page="1" pageScale="1" pageWidth="850" pageHeight="1100" math="0" shadow="0">
            <root>
                <mxCell id="0"/>
                <mxCell id="1" parent="0"/>
                <mxCell id="2" value="$STATEMACHINE : ExGil1" style="shape=swimlane;rotatable=0;align=center;verticalAlign=top;fontFamily=Lucida Console;startSize=30;fontSize=14;fontStyle=1;fontColor=#FAFAFA;fillColor=#545454;swimlaneFillColor=default;rounded=1;arcSize=15;absoluteArcSize=1;" parent="1" vertex="1">
                    <mxGeometry x="40" y="160" width="360" height="220" as="geometry"/>
                </mxCell>
                <mxCell id="3" value=" " style="fontFamily=Lucida Console;align=left;verticalAlign=top;fillColor=none;gradientColor=none;strokeColor=none;rounded=0;spacingLeft=4;resizable=0;movable=0;deletable=0;rotatable=0;autosize=1;" parent="2" vertex="1" connectable="0">
                    <mxGeometry y="30" width="30" height="20" as="geometry"/>
                </mxCell>
                <mxCell id="4" value="$initial_state" style="shape=ellipse;aspect=fixed;fillColor=#000000;resizable=0;rotatable=0;noLabel=1;editable=0;" parent="2" vertex="1">
                    <mxGeometry x="67.5" y="50" width="25" height="25" as="geometry"/>
                </mxCell>
                <mxCell id="5" value="STATE_1" style="shape=swimlane;rotatable=0;align=center;verticalAlign=top;fontFamily=Lucida Console;startSize=30;fontSize=14;fontStyle=1;fontColor=#FAFAFA;fillColor=#545454;swimlaneFillColor=default;rounded=1;arcSize=15;absoluteArcSize=1;" parent="2" vertex="1">
                    <mxGeometry x="20" y="110" width="120" height="90" as="geometry"/>
                </mxCell>
                <mxCell id="6" value="" style="fontFamily=Lucida Console;align=left;verticalAlign=top;fillColor=none;gradientColor=none;strokeColor=none;rounded=0;spacingLeft=4;resizable=0;movable=0;deletable=0;rotatable=0;autosize=1;" parent="5" vertex="1" connectable="0">
                    <mxGeometry y="30" width="50" height="40" as="geometry"/>
                </mxCell>
                <mxCell id="7" value="STATE_2" style="shape=swimlane;rotatable=0;align=center;verticalAlign=top;fontFamily=Lucida Console;startSize=30;fontSize=14;fontStyle=1;fontColor=#FAFAFA;fillColor=#545454;swimlaneFillColor=default;rounded=1;arcSize=15;absoluteArcSize=1;" parent="2" vertex="1">
                    <mxGeometry x="220" y="110" width="120" height="90" as="geometry"/>
                </mxCell>
                <mxCell id="8" value="" style="fontFamily=Lucida Console;align=left;verticalAlign=top;fillColor=none;gradientColor=none;strokeColor=none;rounded=0;spacingLeft=4;resizable=0;movable=0;deletable=0;rotatable=0;autosize=1;" parent="7" vertex="1" connectable="0">
                    <mxGeometry y="30" width="50" height="40" as="geometry"/>
                </mxCell>
                <mxCell id="9" parent="2" source="4" target="5" edge="1">
                    <mxGeometry relative="1" as="geometry"/>
                </mxCell>
                <mxCell id="10" parent="2" source="5" target="7" edge="1">
                    <mxGeometry relative="1" as="geometry"/>
                </mxCell>
                <mxCell id="17" value="$RenderConfig" style="shape=swimlane;rotatable=0;align=center;verticalAlign=top;fontFamily=Lucida Console;startSize=30;fontSize=14;fontStyle=1;swimlaneFillColor=default;html=1;rounded=1;arcSize=15;absoluteArcSize=1;fillColor=#76608a;strokeColor=#432D57;fontColor=#ffffff;" vertex="1" collapsed="1" parent="1">
                    <mxGeometry x="40" y="40" width="210" height="70" as="geometry">
                        <mxRectangle x="320" y="40" width="360" height="470" as="alternateBounds"/>
                    </mxGeometry>
                </mxCell>
                <mxCell id="18" value="" style="fontFamily=Lucida Console;align=left;verticalAlign=top;fillColor=none;gradientColor=none;strokeColor=none;rounded=0;spacingLeft=4;resizable=0;movable=0;deletable=0;rotatable=0;autosize=1;" vertex="1" connectable="0" parent="17">
                    <mxGeometry y="30" width="50" height="40" as="geometry"/>
                </mxCell>
                <mxCell id="72" value="$CONFIG: CFileExtension" style="shape=swimlane;rotatable=0;align=center;verticalAlign=top;fontFamily=Lucida Console;startSize=30;fontSize=14;fontStyle=1;swimlaneFillColor=default;html=1;rounded=1;arcSize=15;absoluteArcSize=1;fillColor=#76608a;fontColor=#ffffff;strokeColor=#432D57;" vertex="1" parent="17">
                    <mxGeometry x="50" y="40" width="280" height="70" as="geometry">
                        <mxRectangle x="1320" y="430" width="280" height="70" as="alternateBounds"/>
                    </mxGeometry>
                </mxCell>
                <mxCell id="73" value=".cpp" style="fontFamily=Lucida Console;align=left;verticalAlign=top;fillColor=none;gradientColor=none;strokeColor=none;rounded=0;spacingLeft=4;resizable=0;movable=0;deletable=0;rotatable=0;autosize=1;" vertex="1" connectable="0" parent="72">
                    <mxGeometry y="30" width="50" height="30" as="geometry"/>
                </mxCell>
                <mxCell id="74" value="$CONFIG: HFileExtension" style="shape=swimlane;rotatable=0;align=center;verticalAlign=top;fontFamily=Lucida Console;startSize=30;fontSize=14;fontStyle=1;swimlaneFillColor=default;html=1;rounded=1;arcSize=15;absoluteArcSize=1;fillColor=#76608a;fontColor=#ffffff;strokeColor=#432D57;" vertex="1" parent="17">
                    <mxGeometry x="370" y="40" width="320" height="70" as="geometry">
                        <mxRectangle x="1320" y="430" width="280" height="70" as="alternateBounds"/>
                    </mxGeometry>
                </mxCell>
                <mxCell id="75" value=".hpp" style="fontFamily=Lucida Console;align=left;verticalAlign=top;fillColor=none;gradientColor=none;strokeColor=none;rounded=0;spacingLeft=4;resizable=0;movable=0;deletable=0;rotatable=0;autosize=1;" vertex="1" connectable="0" parent="74">
                    <mxGeometry y="30" width="50" height="30" as="geometry"/>
                </mxCell>
                <mxCell id="76" value="$CONFIG: CEnumDeclarer" style="shape=swimlane;rotatable=0;align=center;verticalAlign=top;fontFamily=Lucida Console;startSize=30;fontSize=14;fontStyle=1;swimlaneFillColor=default;html=1;rounded=1;arcSize=15;absoluteArcSize=1;fillColor=#76608a;fontColor=#ffffff;strokeColor=#432D57;" vertex="1" parent="17">
                    <mxGeometry x="730" y="40" width="370" height="70" as="geometry">
                        <mxRectangle x="1320" y="430" width="280" height="70" as="alternateBounds"/>
                    </mxGeometry>
                </mxCell>
                <mxCell id="77" value="typedef enum __attribute__((packed)) {enumName}" style="fontFamily=Lucida Console;align=left;verticalAlign=top;fillColor=none;gradientColor=none;strokeColor=none;rounded=0;spacingLeft=4;resizable=0;movable=0;deletable=0;rotatable=0;autosize=1;" vertex="1" connectable="0" parent="76">
                    <mxGeometry y="30" width="370" height="30" as="geometry"/>
                </mxCell>
            </root>
        </mxGraphModel>
    </diagram>
</mxfile>
